<?xml version="1.0" encoding="UTF-8" standalone="no"?> <svg xmlns="http://www.w3.org/2000/svg" xmlns:xlink="http://www.w3.org/1999/xlink" viewBox="0 0 64 64"><defs><style>.cls-1{fill:url(#linear-gradient);}</style><linearGradient id="linear-gradient" x1="2" y1="32" x2="62" y2="32" gradientUnits="userSpaceOnUse"><stop offset="0" stop-color="#17a6d7"/><stop offset="1" stop-color="#9d31fe"/></linearGradient></defs><g id="Layer_90" data-name="Layer 90"><path class="cls-1" d="M62,12A10,10,0,0,0,52,2c-12,.34-13.67,17-2.08,19.78A22,22,0,0,1,28,42H14V21.8A10,10,0,0,0,22,12C21.45-1.27,2.55-1.26,2,12a10,10,0,0,0,8,9.8V42.2C-1.66,44.89-.07,61.66,12,62c8.13.12,13-9.65,8-16h8A26,26,0,0,0,53.93,21.81,10,10,0,0,0,62,12ZM6,12c.25-7.93,11.75-7.93,12,0C17.75,19.93,6.25,19.93,6,12ZM18,52c-.25,7.93-11.75,7.93-12,0C6.25,44.07,17.75,44.07,18,52ZM52,18c-7.93-.25-7.93-11.75,0-12C59.93,6.25,59.93,17.75,52,18Z"/></g></svg>