<?xml version="1.0" encoding="UTF-8" standalone="no"?> <svg width="64" height="64" viewBox="0 0 64 64" fill="none" xmlns="http://www.w3.org/2000/svg">
<path d="M23.34 17.1299L46.11 29.8799L46.27 33.3599L23.13 46.9599L19.54 44.4999L19.75 19.1599L23.34 17.1299Z" fill="#78B9EB"/>
<path d="M32 2.75C26.2149 2.75 20.5597 4.46548 15.7496 7.67951C10.9394 10.8935 7.1904 15.4618 4.97654 20.8065C2.76267 26.1512 2.18343 32.0324 3.31204 37.7064C4.44066 43.3803 7.22645 48.5922 11.3171 52.6829C15.4078 56.7736 20.6197 59.5594 26.2936 60.688C31.9676 61.8166 37.8488 61.2373 43.1935 59.0235C48.5382 56.8096 53.1065 53.0606 56.3205 48.2504C59.5345 43.4403 61.25 37.7851 61.25 32C61.2421 24.2449 58.1578 16.8096 52.6741 11.3259C47.1904 5.84218 39.7552 2.75794 32 2.75V2.75ZM32 58.75C26.7094 58.75 21.5375 57.1811 17.1385 54.2418C12.7395 51.3025 9.31088 47.1247 7.28624 42.2368C5.26159 37.3489 4.73185 31.9703 5.76401 26.7813C6.79616 21.5923 9.34385 16.8259 13.0849 13.0849C16.826 9.34384 21.5924 6.79615 26.7813 5.76399C31.9703 4.73184 37.3489 5.26158 42.2368 7.28622C47.1247 9.31087 51.3025 12.7395 54.2418 17.1385C57.1812 21.5375 58.75 26.7093 58.75 32C58.7421 39.0921 55.9212 45.8915 50.9063 50.9063C45.8915 55.9212 39.0921 58.7421 32 58.75V58.75Z" fill="#006DF0"/>
<path d="M45.5699 28.3201L25.1299 16.5101C24.4848 16.1341 23.7516 15.936 23.0049 15.936C22.2583 15.936 21.525 16.1341 20.8799 16.5101C20.2281 16.8769 19.6867 17.4118 19.312 18.059C18.9374 18.7063 18.7433 19.4423 18.7499 20.1901V43.8001C18.7464 44.548 18.9409 45.2835 19.3134 45.932C19.686 46.5805 20.2235 47.1189 20.8714 47.4926C21.5192 47.8663 22.2544 48.062 23.0023 48.0598C23.7502 48.0576 24.4843 47.8576 25.1299 47.4801L45.5699 35.6801C46.2157 35.307 46.752 34.7705 47.1248 34.1246C47.4976 33.4786 47.6939 32.7459 47.6939 32.0001C47.6939 31.2543 47.4976 30.5216 47.1248 29.8756C46.752 29.2297 46.2157 28.6932 45.5699 28.3201V28.3201ZM44.3199 33.5201L23.8799 45.3201C23.6129 45.4719 23.3109 45.5513 23.0038 45.5502C22.6966 45.5491 22.3951 45.4677 22.1292 45.314C21.8633 45.1603 21.6422 44.9397 21.488 44.6741C21.3337 44.4086 21.2517 44.1072 21.2499 43.8001V20.2001C21.2486 19.8915 21.3294 19.588 21.4841 19.3209C21.6387 19.0538 21.8616 18.8327 22.1299 18.6801C22.393 18.5232 22.6936 18.4403 22.9999 18.4401C23.3092 18.4419 23.6126 18.5246 23.8799 18.6801L44.3199 30.4801C44.5885 30.6315 44.8111 30.8527 44.9643 31.1203C45.1174 31.3879 45.1954 31.6919 45.1899 32.0001C45.1922 32.3078 45.1129 32.6105 44.9601 32.8775C44.8073 33.1446 44.5864 33.3663 44.3199 33.5201V33.5201Z" fill="#006DF0"/>
</svg>
